<svg xmlns="http://www.w3.org/2000/svg" viewBox="0 0 64 64"><g id="skull-death-3" data-name="skull-death"><path d="M50.57,34.79A5.8,5.8,0,0,1,51,37a6,6,0,0,1-4.07,5.68A5.875,5.875,0,0,1,45,43a5.813,5.813,0,0,1-1.78-.27,2.529,2.529,0,0,1-.22.13V46a1.95,1.95,0,0,1-.26.99A2.022,2.022,0,0,1,41,48H23a2.022,2.022,0,0,1-1.74-1.01A1.95,1.95,0,0,1,21,46V42.86a2.529,2.529,0,0,1-.22-.13A5.813,5.813,0,0,1,19,43a5.875,5.875,0,0,1-1.93-.32A6,6,0,0,1,13,37a5.8,5.8,0,0,1,.43-2.21,21,21,0,0,1,34.73-23.2,20.67,20.67,0,0,1,3.21,5.29,20.983,20.983,0,0,1-.8,17.91Z" style="fill:#DB4FB6" id="id_169"></path><circle cx="41" cy="28" r="6" style="fill:#3e3d42" id="id_170"></circle><circle cx="23" cy="28" r="6" style="fill:#3e3d42" id="id_171"></circle><path d="M18,29a5.991,5.991,0,0,1,9.708-4.708,5.994,5.994,0,1,0-8.416,8.416A5.96,5.96,0,0,1,18,29Z" style="fill:#2d2d30" id="id_172"></path><path d="M36,29a5.991,5.991,0,0,1,9.708-4.708,5.994,5.994,0,1,0-8.416,8.416A5.96,5.96,0,0,1,36,29Z" style="fill:#2d2d30" id="id_173"></path><path d="M21.26,46.99l-6.64,6.64a1,1,0,0,0,0,1.41l1.41,1.42a1,1,0,0,1,0,1.41L13.2,60.7a1,1,0,0,1-1.41,0L8.96,57.87a1,1,0,0,1,0-1.41L7.54,55.04a1,1,0,0,1-1.41,0L3.3,52.21a1,1,0,0,1,0-1.41l2.83-2.83a1,1,0,0,1,1.41,0l1.42,1.41a1,1,0,0,0,1.41,0l6.7-6.7A5.875,5.875,0,0,0,19,43a5.813,5.813,0,0,0,1.78-.27,2.529,2.529,0,0,0,.22.13V46A1.95,1.95,0,0,0,21.26,46.99Z" style="fill:#FBD000" id="id_174"></path><path d="M60.7,50.8a1,1,0,0,1,0,1.41l-2.83,2.83a1,1,0,0,1-1.41,0l-1.42,1.42a1,1,0,0,1,0,1.41L52.21,60.7a1,1,0,0,1-1.41,0l-2.83-2.83a1,1,0,0,1,0-1.41l1.41-1.42a1,1,0,0,0,0-1.41l-6.64-6.64A1.95,1.95,0,0,0,43,46V42.86a2.529,2.529,0,0,0,.22-.13A5.813,5.813,0,0,0,45,43a5.875,5.875,0,0,0,1.93-.32l6.7,6.7a1,1,0,0,0,1.41,0l1.42-1.41a1,1,0,0,1,1.41,0Z" style="fill:#FBD000" id="id_175"></path><path d="M60.7,11.79a1,1,0,0,1,0,1.41l-2.83,2.83a1,1,0,0,1-1.41,0l-1.42-1.41a1,1,0,0,0-1.41,0l-2.26,2.26a20.67,20.67,0,0,0-3.21-5.29l1.22-1.22a1,1,0,0,0,0-1.41L47.97,7.54a1,1,0,0,1,0-1.41L50.8,3.3a1,1,0,0,1,1.41,0l2.83,2.83a1,1,0,0,1,0,1.41l1.42,1.42a1,1,0,0,1,1.41,0Z" style="fill:#FBD000" id="id_176"></path><path d="M16.03,6.13a1,1,0,0,1,0,1.41L14.62,8.96a1,1,0,0,0,0,1.41l1.22,1.22a20.67,20.67,0,0,0-3.21,5.29l-2.26-2.26a1,1,0,0,0-1.41,0L7.54,16.03a1,1,0,0,1-1.41,0L3.3,13.2a1,1,0,0,1,0-1.41L6.13,8.96a1,1,0,0,1,1.41,0L8.96,7.54a1,1,0,0,1,0-1.41L11.79,3.3a1,1,0,0,1,1.41,0Z" style="fill:#FBD000" id="id_177"></path><path d="M41.78,54.2l-.6,4A2,2,0,0,1,39.19,60H24.81a2,2,0,0,1-1.99-1.8l-.6-4A2,2,0,0,1,24.21,52H39.79A2,2,0,0,1,41.78,54.2Z" style="fill:#DB4FB6" id="id_178"></path><rect x="25" y="45" width="2" height="10" rx="1" style="fill:#2d2d30" id="id_179"></rect><rect x="29" y="45" width="2" height="10" rx="1" style="fill:#2d2d30" id="id_180"></rect><rect x="33" y="45" width="2" height="10" rx="1" style="fill:#2d2d30" id="id_181"></rect><rect x="37" y="45" width="2" height="10" rx="1" style="fill:#2d2d30" id="id_182"></rect><circle cx="35" cy="39" r="2" style="fill:#3e3d42" id="id_183"></circle><circle cx="29" cy="39" r="2" style="fill:#3e3d42" id="id_184"></circle><ellipse cx="21.5" cy="12.5" rx="3.5" ry="2.5" transform="translate(-2.542 18.864) rotate(-45)" style="fill:#ffe1bb" id="id_185"></ellipse></g></svg>